<?xml version="1.0" encoding="UTF-8" standalone="no"?>
<!-- Created with Inkscape (http://www.inkscape.org/) -->

<svg
   xmlns:dc="http://purl.org/dc/elements/1.1/"
   xmlns:cc="http://creativecommons.org/ns#"
   xmlns:rdf="http://www.w3.org/1999/02/22-rdf-syntax-ns#"
   xmlns:svg="http://www.w3.org/2000/svg"
   xmlns="http://www.w3.org/2000/svg"
   xmlns:sodipodi="http://sodipodi.sourceforge.net/DTD/sodipodi-0.dtd"
   xmlns:inkscape="http://www.inkscape.org/namespaces/inkscape"
   width="1078"
   height="300"
   viewBox="0 0 1078 300"
   id="svg3979"
   version="1.1"
   inkscape:version="0.91 r13725"
   sodipodi:docname="OH_img_2.svg"
   inkscape:export-filename="/home/gsp/Images/OH_img_2.png"
   inkscape:export-xdpi="91.46814"
   inkscape:export-ydpi="91.46814">
  <defs
     id="defs3981">
    <marker
       inkscape:stockid="Arrow2Mend"
       orient="auto"
       refY="0.0"
       refX="0.0"
       id="Arrow2Mend"
       style="overflow:visible;"
       inkscape:isstock="true">
      <path
         id="path5363"
         style="fill-rule:evenodd;stroke-width:0.625;stroke-linejoin:round;stroke:#d96500;stroke-opacity:1;fill:#d96500;fill-opacity:1"
         d="M 8.7185878,4.0337352 L -2.2072895,0.016013256 L 8.7185884,-4.0017078 C 6.9730900,-1.6296469 6.9831476,1.6157441 8.7185878,4.0337352 z "
         transform="scale(0.6) rotate(180) translate(0,0)" />
    </marker>
    <marker
       inkscape:stockid="Arrow2Lend"
       orient="auto"
       refY="0.0"
       refX="0.0"
       id="Arrow2Lend"
       style="overflow:visible;"
       inkscape:isstock="true">
      <path
         id="path5357"
         style="fill-rule:evenodd;stroke-width:0.625;stroke-linejoin:round;stroke:#d96500;stroke-opacity:1;fill:#d96500;fill-opacity:1"
         d="M 8.7185878,4.0337352 L -2.2072895,0.016013256 L 8.7185884,-4.0017078 C 6.9730900,-1.6296469 6.9831476,1.6157441 8.7185878,4.0337352 z "
         transform="scale(1.1) rotate(180) translate(1,0)" />
    </marker>
    <marker
       inkscape:stockid="Arrow1Send"
       orient="auto"
       refY="0.0"
       refX="0.0"
       id="Arrow1Send"
       style="overflow:visible;"
       inkscape:isstock="true">
      <path
         id="path5351"
         d="M 0.0,0.0 L 5.0,-5.0 L -12.5,0.0 L 5.0,5.0 L 0.0,0.0 z "
         style="fill-rule:evenodd;stroke:#d96500;stroke-width:1pt;stroke-opacity:1;fill:#d96500;fill-opacity:1"
         transform="scale(0.2) rotate(180) translate(6,0)" />
    </marker>
    <marker
       inkscape:stockid="Arrow1Mend"
       orient="auto"
       refY="0.0"
       refX="0.0"
       id="Arrow1Mend"
       style="overflow:visible;"
       inkscape:isstock="true">
      <path
         id="path5345"
         d="M 0.0,0.0 L 5.0,-5.0 L -12.5,0.0 L 5.0,5.0 L 0.0,0.0 z "
         style="fill-rule:evenodd;stroke:#d96500;stroke-width:1pt;stroke-opacity:1;fill:#d96500;fill-opacity:1"
         transform="scale(0.4) rotate(180) translate(10,0)" />
    </marker>
    <marker
       inkscape:stockid="Arrow1Lend"
       orient="auto"
       refY="0.0"
       refX="0.0"
       id="Arrow1Lend"
       style="overflow:visible;"
       inkscape:isstock="true">
      <path
         id="path5339"
         d="M 0.0,0.0 L 5.0,-5.0 L -12.5,0.0 L 5.0,5.0 L 0.0,0.0 z "
         style="fill-rule:evenodd;stroke:#000000;stroke-width:1pt;stroke-opacity:1;fill:#000000;fill-opacity:1"
         transform="scale(0.8) rotate(180) translate(12.5,0)" />
    </marker>
    <marker
       inkscape:stockid="Arrow2Mend"
       orient="auto"
       refY="0"
       refX="0"
       id="Arrow2Mend-9"
       style="overflow:visible"
       inkscape:isstock="true">
      <path
         inkscape:connector-curvature="0"
         id="path5363-1"
         style="fill:#d96500;fill-opacity:1;fill-rule:evenodd;stroke:#d96500;stroke-width:0.625;stroke-linejoin:round;stroke-opacity:1"
         d="M 8.7185878,4.0337352 -2.2072895,0.01601326 8.7185884,-4.0017078 c -1.7454984,2.3720609 -1.7354408,5.6174519 -6e-7,8.035443 z"
         transform="scale(-0.6,-0.6)" />
    </marker>
  </defs>
  <sodipodi:namedview
     id="base"
     pagecolor="#ffffff"
     bordercolor="#666666"
     borderopacity="1.0"
     inkscape:pageopacity="0.0"
     inkscape:pageshadow="2"
     inkscape:zoom="1.4"
     inkscape:cx="549.66625"
     inkscape:cy="243.09059"
     inkscape:document-units="px"
     inkscape:current-layer="layer1"
     showgrid="false"
     units="px"
     inkscape:window-width="1920"
     inkscape:window-height="1056"
     inkscape:window-x="1280"
     inkscape:window-y="24"
     inkscape:window-maximized="1" />
  <metadata
     id="metadata3984">
    <rdf:RDF>
      <cc:Work
         rdf:about="">
        <dc:format>image/svg+xml</dc:format>
        <dc:type
           rdf:resource="http://purl.org/dc/dcmitype/StillImage" />
        <dc:title></dc:title>
      </cc:Work>
    </rdf:RDF>
  </metadata>
  <g
     inkscape:label="Calque 1"
     inkscape:groupmode="layer"
     id="layer1"
     transform="translate(0,-752.36216)">
    <path
       style="fill:#333333"
       d="m 888.5182,942.26301 c -1.33623,-1.61009 -1.60447,-4.99164 -0.92331,-11.64027 2.30299,-22.47829 12.47476,-39.02902 26.91565,-43.79492 16.59449,-5.47668 34.04252,13.35702 38.03251,41.05299 2.3863,16.5641 3.91932,15.78207 -31.86238,16.25304 -25.76651,0.33916 -30.55974,0.0607 -32.16247,-1.87084 z m 23.91782,-62.21366 c -8.4502,-4.28982 -11.4153,-14.04999 -6.91322,-22.75609 2.42675,-4.69285 9.00772,-8.81253 14.0774,-8.81253 5.85103,0 12.91837,4.50681 15.45719,9.857 6.72859,14.17943 -8.55781,28.85107 -22.62137,21.71162 z"
       id="path4017-4-7"
       inkscape:connector-curvature="0" />
    <path
       style="fill:#808080"
       d="m 18.250938,982.09001 c -1.722609,-2.0756 -2.068403,-6.4349 -1.190296,-15.006 2.968899,-28.97786 16.081823,-50.31421 34.698284,-56.45817 21.39276,-7.06025 43.88586,17.21919 49.029554,52.92337 3.0763,21.3536 5.05259,20.3455 -41.075344,20.9526 -33.216859,0.4372 -39.396051,0.078 -41.462198,-2.4118 z m 30.833628,-80.20263 c -10.893571,-5.53021 -14.716031,-18.11252 -8.912181,-29.33598 3.128448,-6.04978 11.612291,-11.36066 18.147871,-11.36066 7.54284,0 16.6537,5.80995 19.92662,12.70714 8.67414,18.27939 -11.0323,37.19332 -29.16231,27.9895 z"
       id="path4017"
       inkscape:connector-curvature="0" />
    <path
       style="fill:#808080"
       d="m 353.63028,982.09001 c -1.72261,-2.0756 -2.06841,-6.4349 -1.1903,-15.006 2.9689,-28.97786 16.08182,-50.31421 34.69828,-56.45817 21.39276,-7.06025 43.88587,17.21919 49.02956,52.92337 3.0763,21.3536 5.05259,20.3455 -41.07535,20.9526 -33.21685,0.4372 -39.39605,0.078 -41.46219,-2.4118 z m 30.83362,-80.20263 c -10.89357,-5.53021 -14.71603,-18.11252 -8.91218,-29.33598 3.12845,-6.04978 11.61229,-11.36066 18.14787,-11.36066 7.54284,0 16.6537,5.80995 19.92662,12.70714 8.67415,18.27939 -11.0323,37.19332 -29.16231,27.9895 z"
       id="path4017-1"
       inkscape:connector-curvature="0" />
    <path
       style="fill:#808080"
       d="m 453.63538,982.09001 c -1.7226,-2.0756 -2.0684,-6.4349 -1.19029,-15.006 2.9689,-28.97786 16.08182,-50.31421 34.69828,-56.45817 21.39276,-7.06025 43.88587,17.21919 49.02956,52.92337 3.0763,21.3536 5.05259,20.3455 -41.07535,20.9526 -33.21686,0.4372 -39.39605,0.078 -41.4622,-2.4118 z m 30.83363,-80.20263 c -10.89357,-5.53021 -14.71603,-18.11252 -8.91218,-29.33598 3.12845,-6.04978 11.61229,-11.36066 18.14787,-11.36066 7.54284,0 16.6537,5.80995 19.92662,12.70714 8.67415,18.27939 -11.0323,37.19332 -29.16231,27.9895 z"
       id="path4017-2"
       inkscape:connector-curvature="0" />
    <path
       style="fill:#333333"
       d="m 825.88875,931.65397 c -1.33623,-1.61009 -1.60447,-4.99164 -0.92331,-11.64027 2.30299,-22.47829 12.47476,-39.02902 26.91565,-43.79492 16.59449,-5.47668 34.04252,13.35702 38.03251,41.05299 2.3863,16.56405 3.91932,15.78207 -31.86238,16.25304 -25.76651,0.33911 -30.55974,0.0607 -32.16247,-1.87084 z m 23.91782,-62.21366 c -8.4502,-4.28982 -11.4153,-14.04999 -6.91322,-22.75609 2.42675,-4.69285 9.00772,-8.81253 14.0774,-8.81253 5.85103,0 12.91837,4.50681 15.45719,9.857 6.72859,14.17943 -8.55781,28.85107 -22.62137,21.71162 z"
       id="path4017-4"
       inkscape:connector-curvature="0" />
    <path
       style="fill:#4d4d4d"
       d="m 849.04349,964.73901 c -1.50374,-1.8119 -1.80561,-5.6174 -1.03906,-13.0995 2.59169,-25.29615 14.03859,-43.92167 30.28977,-49.28502 18.67477,-6.16323 38.31008,15.03144 42.80026,46.19932 2.68544,18.6406 4.41064,17.7606 -35.85664,18.2906 -28.99658,0.3816 -34.39069,0.068 -36.19433,-2.1054 z m 26.91615,-70.01274 c -9.50952,-4.82758 -12.84633,-15.81129 -7.77988,-25.60878 2.73098,-5.28114 10.13693,-9.91726 15.84215,-9.91726 6.58451,0 14.53781,5.07178 17.3949,11.09267 7.57208,15.95695 -9.63062,32.46783 -25.45717,24.43337 z"
       id="path4017-0"
       inkscape:connector-curvature="0" />
    <path
       style="fill:#666666"
       d="m 892.18118,975.29041 c 1.5037,-1.8119 1.8056,-5.6174 1.039,-13.0995 -2.5917,-25.29615 -14.0386,-43.92167 -30.28978,-49.28502 -18.6747,-6.16323 -38.31,15.03144 -42.8002,46.19932 -2.6855,18.6406 -4.4107,17.7606 35.8566,18.2906 28.99658,0.3816 34.39068,0.068 36.19438,-2.1054 z M 865.265,905.27767 c 9.50948,-4.82758 12.84628,-15.81129 7.77988,-25.60878 -2.731,-5.28114 -10.13688,-9.91726 -15.84218,-9.91726 -6.5845,0 -14.5378,5.07178 -17.3949,11.09267 -7.5721,15.95695 9.6306,32.46783 25.4572,24.43337 z"
       id="path4017-0-6-0"
       inkscape:connector-curvature="0" />
    <path
       style="fill:#808080"
       d="m 780.29824,982.09001 c -1.72261,-2.0756 -2.06841,-6.4349 -1.1903,-15.006 2.9689,-28.97786 16.08182,-50.31421 34.69828,-56.45817 21.39276,-7.06025 43.88587,17.21919 49.02956,52.92337 3.0763,21.3536 5.05259,20.3455 -41.07535,20.9526 -33.21686,0.4372 -39.39605,0.078 -41.46219,-2.4118 z m 30.83362,-80.20263 c -10.89357,-5.53021 -14.71603,-18.11252 -8.91218,-29.33598 3.12845,-6.04978 11.61229,-11.36066 18.14787,-11.36066 7.54284,0 16.6537,5.80995 19.92662,12.70714 8.67415,18.27939 -11.0323,37.19332 -29.16231,27.9895 z"
       id="path4017-5"
       inkscape:connector-curvature="0" />
    <path
       style="fill:#333333"
       d="m 1020.2593,931.65399 c 1.3362,-1.61009 1.6044,-4.99164 0.9233,-11.64027 -2.303,-22.47829 -12.4748,-39.02902 -26.91579,-43.79492 -16.5945,-5.47668 -34.04258,13.35702 -38.03258,41.05299 -2.3863,16.56405 -3.9193,15.78207 31.86238,16.25304 25.76669,0.33911 30.55989,0.0607 32.16269,-1.87084 z m -23.91799,-62.21366 c 8.45029,-4.28982 11.41539,-14.04999 6.91329,-22.75609 -2.4267,-4.69285 -9.00779,-8.81253 -14.07749,-8.81253 -5.851,0 -12.9184,4.50681 -15.4572,9.857 -6.72858,14.17943 8.5578,28.85107 22.6214,21.71162 z"
       id="path4017-4-4"
       inkscape:connector-curvature="0" />
    <path
       style="fill:#4d4d4d"
       d="m 997.10441,964.73901 c 1.50374,-1.8119 1.80564,-5.6174 1.03904,-13.0995 -2.59174,-25.29613 -14.03864,-43.92165 -30.28982,-49.285 -18.6747,-6.16323 -38.31,15.03144 -42.8002,46.1994 -2.6855,18.6405 -4.4107,17.7605 35.8566,18.2905 28.99658,0.3816 34.39068,0.068 36.19438,-2.1054 z m -26.91618,-70.01272 c 9.50948,-4.82758 12.84628,-15.81129 7.77988,-25.60878 -2.731,-5.28114 -10.13688,-9.91726 -15.84218,-9.91726 -6.5845,0 -14.5378,5.07178 -17.3949,11.09267 -7.5721,15.95695 9.6306,32.46783 25.4572,24.43337 z"
       id="path4017-0-6"
       inkscape:connector-curvature="0" />
    <path
       style="fill:#666666"
       d="m 1019.4605,974.28021 c 1.5037,-1.8119 1.8056,-5.6174 1.039,-13.0994 -2.5917,-25.29621 -14.0386,-43.92173 -30.28989,-49.28508 -18.6747,-6.16323 -38.30999,15.03144 -42.80019,46.19938 -2.6855,18.6405 -4.4107,17.7605 35.85659,18.2905 28.99669,0.3816 34.39079,0.068 36.19449,-2.1054 z m -26.91629,-70.0127 c 9.50959,-4.82758 12.84639,-15.81129 7.77999,-25.60878 -2.73105,-5.28114 -10.13699,-9.91726 -15.84229,-9.91726 -6.5845,0 -14.53779,5.07178 -17.39489,11.09267 -7.5721,15.95695 9.63059,32.46783 25.45719,24.43337 z"
       id="path4017-0-6-0-2"
       inkscape:connector-curvature="0" />
    <path
       style="fill:#808080"
       d="m 1065.8497,982.09011 c 1.7226,-2.0757 2.0684,-6.435 1.1903,-15.0061 -2.9689,-28.97784 -16.0819,-50.31419 -34.6982,-56.45815 -21.3928,-7.06025 -43.88599,17.21919 -49.02969,52.92345 -3.0763,21.3535 -5.0526,20.3454 41.07549,20.9526 33.2167,0.4371 39.3959,0.078 41.4621,-2.4118 z M 1035.016,901.8874 c 10.8936,-5.53021 14.7161,-18.11252 8.9122,-29.33598 -3.1284,-6.04978 -11.6122,-11.36066 -18.1477,-11.36066 -7.5429,0 -16.6538,5.80995 -19.9267,12.70714 -8.67425,18.27939 11.0323,37.19332 29.1622,27.9895 z"
       id="path4017-5-4"
       inkscape:connector-curvature="0" />
    <path
       style="fill:#808080"
       d="m 961.55142,982.09011 c 1.7226,-2.0757 2.0684,-6.435 1.1903,-15.0061 -2.9689,-28.9778 -16.0819,-50.31415 -34.69832,-56.45811 -21.3928,-7.06025 -43.8859,17.21919 -49.0296,52.92341 -3.0763,21.3535 -5.0526,20.3454 41.0754,20.9526 33.21682,0.4371 39.39602,0.078 41.46222,-2.4118 z M 930.7177,901.88744 c 10.8936,-5.53021 14.71612,-18.11252 8.9122,-29.33598 -3.1284,-6.04978 -11.6123,-11.36066 -18.1478,-11.36066 -7.5429,0 -16.6538,5.80995 -19.9267,12.70714 -8.6742,18.27939 11.0323,37.19332 29.1623,27.9895 z"
       id="path4017-5-4-2"
       inkscape:connector-curvature="0" />
    <ellipse
       style="opacity:0.981;fill:#ffffff;fill-opacity:1;stroke:#000000;stroke-width:4;stroke-linecap:round;stroke-linejoin:round;stroke-miterlimit:4;stroke-dasharray:none;stroke-dashoffset:0;stroke-opacity:1"
       id="path4201"
       cx="127.14286"
       cy="796.08948"
       rx="78.571426"
       ry="39.285713" />
    <path
       style="fill:#ffffff;fill-opacity:1;fill-rule:evenodd;stroke:#000000;stroke-width:4;stroke-linecap:butt;stroke-linejoin:miter;stroke-miterlimit:4;stroke-dasharray:none;stroke-opacity:1"
       d="m 112.97598,834.99639 -30.68519,36.40319 47.3954,-36.13271 z"
       id="path5003"
       inkscape:connector-curvature="0"
       sodipodi:nodetypes="cccc" />
    <path
       style="fill:#ffffff;fill-opacity:1;fill-rule:evenodd;stroke:none;stroke-width:1px;stroke-linecap:butt;stroke-linejoin:miter;stroke-opacity:1"
       d="m 111.60343,839.89801 9.468,-12.37995 13.92857,1.07142 -18.31723,14.06796 z"
       id="path5005"
       inkscape:connector-curvature="0"
       sodipodi:nodetypes="ccccc" />
    <path
       sodipodi:type="star"
       style="opacity:0.981;fill:#be0000;fill-opacity:1;stroke:#be0000;stroke-width:4;stroke-linecap:round;stroke-linejoin:round;stroke-miterlimit:4;stroke-dasharray:none;stroke-dashoffset:0;stroke-opacity:1"
       id="path5007"
       sodipodi:sides="3"
       sodipodi:cx="104.04571"
       sodipodi:cy="843.00806"
       sodipodi:r1="35.065536"
       sodipodi:r2="17.532768"
       sodipodi:arg1="0.72425"
       sodipodi:arg2="1.7714476"
       inkscape:flatsided="true"
       inkscape:rounded="0.01"
       inkscape:randomized="0"
       d="m 130.30967,866.24157 c -0.40241,0.4549 -59.324003,-11.52905 -59.516754,-12.10501 -0.192752,-0.57595 39.646454,-45.61157 40.241614,-45.49052 0.59517,0.12105 19.67756,57.14062 19.27514,57.59553 z"
       inkscape:transform-center-x="-0.099060166"
       inkscape:transform-center-y="-8.6577388"
       transform="matrix(0.97879962,-0.20482016,0.20482016,0.97879962,-145.9627,-2.5219396)" />
    <text
       xml:space="preserve"
       style="font-style:normal;font-variant:normal;font-weight:500;font-stretch:normal;font-size:60px;line-height:125%;font-family:Ubuntu;-inkscape-font-specification:'Ubuntu Medium';letter-spacing:0px;word-spacing:0px;fill:#ffffff;fill-opacity:1;stroke:none;stroke-width:1px;stroke-linecap:butt;stroke-linejoin:miter;stroke-opacity:1"
       x="119.44418"
       y="818.22345"
       id="text5009"
       sodipodi:linespacing="125%"><tspan
         sodipodi:role="line"
         id="tspan5011"
         x="119.44418"
         y="818.22345">!</tspan></text>
    <ellipse
       style="opacity:0.981;fill:#ffffff;fill-opacity:1;stroke:#000000;stroke-width:4;stroke-linecap:round;stroke-linejoin:round;stroke-miterlimit:4;stroke-dasharray:none;stroke-dashoffset:0;stroke-opacity:1"
       id="path4201-9"
       cx="441.60385"
       cy="794.56122"
       rx="78.571426"
       ry="39.285713" />
    <text
       xml:space="preserve"
       style="font-style:normal;font-variant:normal;font-weight:500;font-stretch:normal;font-size:60px;line-height:125%;font-family:Ubuntu;-inkscape-font-specification:'Ubuntu Medium';letter-spacing:0px;word-spacing:0px;fill:#ffffff;fill-opacity:1;stroke:none;stroke-width:1px;stroke-linecap:butt;stroke-linejoin:miter;stroke-opacity:1"
       x="431.88486"
       y="857.10126"
       id="text5009-5"
       sodipodi:linespacing="125%"><tspan
         sodipodi:role="line"
         id="tspan5011-9"
         x="431.88486"
         y="857.10126" /></text>
    <path
       style="fill:none;fill-rule:evenodd;stroke:#000000;stroke-width:4;stroke-linecap:butt;stroke-linejoin:miter;stroke-opacity:1"
       d="m 411.38462,868.26186 20.51873,-34.21891 13.82646,0.3788 z"
       id="path5063"
       inkscape:connector-curvature="0"
       sodipodi:nodetypes="cccc" />
    <path
       style="fill:#ffffff;fill-opacity:1;fill-rule:evenodd;stroke:none;stroke-width:1px;stroke-linecap:butt;stroke-linejoin:miter;stroke-opacity:1"
       d="m 432.78723,836.50519 5.61898,-9.84899 c 0,0 12.12182,1.07329 11.86928,1.07329 -0.25253,0 -13.38452,12.4375 -13.38452,12.4375 z"
       id="path5065"
       inkscape:connector-curvature="0"
       sodipodi:nodetypes="ccscc" />
    <path
       style="fill:none;fill-rule:evenodd;stroke:#000000;stroke-width:4;stroke-linecap:butt;stroke-linejoin:miter;stroke-opacity:1"
       d="m 470.80351,877.63926 -4.65427,-43.33135 -11.82665,-0.15166 z"
       id="path5063-2"
       inkscape:connector-curvature="0"
       sodipodi:nodetypes="cccc"
       inkscape:transform-center-x="-2.438578"
       inkscape:transform-center-y="22.423021" />
    <path
       style="fill:#ffffff;fill-opacity:1;fill-rule:evenodd;stroke:none;stroke-width:1px;stroke-linecap:butt;stroke-linejoin:miter;stroke-opacity:1"
       d="m 464.693,839.83424 -0.97023,-11.29753 c 0,0 -11.45434,-4.10958 -11.22509,-4.00366 0.22925,0.10591 6.93418,16.90426 6.93418,16.90426 z"
       id="path5065-1"
       inkscape:connector-curvature="0"
       sodipodi:nodetypes="ccscc"
       inkscape:transform-center-x="1.2782902"
       inkscape:transform-center-y="0.33018901" />
    <g
       id="layer1-6"
       inkscape:label="Calque 1"
       transform="translate(-201.09257,1006.0337)">
      <path
         inkscape:connector-curvature="0"
         id="path4233"
         d="m 646.25851,-178.18062 c -0.7614,-0.43465 -3.35887,-2.73341 -3.35887,-2.9726 0,-0.11632 2.46319,-0.21149 5.47376,-0.21149 3.01053,0 5.47373,0.0669 5.47373,0.14861 0,0.19422 -2.37565,2.33939 -3.20898,2.89763 -0.75573,0.50626 -3.57862,0.59512 -4.37964,0.13785 z m -4.7212,-5.51253 c -0.53933,-0.39437 -0.62007,-1.68458 -0.14151,-2.26123 0.27504,-0.33141 1.24887,-0.38647 6.83608,-0.38647 6.68238,0 7.25434,0.0773 7.36915,0.99525 0.0947,0.7563 -0.0217,1.218 -0.40323,1.59946 -0.33518,0.33518 -1.30488,0.39097 -6.79463,0.39097 -5.00285,0 -6.50476,-0.0739 -6.86586,-0.33798 z m -0.4896,-5.43992 c -0.52128,-0.74424 -0.4875,-1.33731 0.11029,-1.9351 0.47264,-0.47262 0.82935,-0.49759 7.10733,-0.49759 3.81133,0 6.80137,0.10259 7.06238,0.24225 0.66204,0.35433 0.85869,1.43408 0.39109,2.14774 l -0.39032,0.59566 -6.94671,0 c -6.89651,0 -6.94955,-0.003 -7.33406,-0.55296 z m -1.38255,-5.64098 c 0,-2.15603 -1.24157,-5.14122 -4.30131,-10.34185 -0.96296,-1.63673 -2.11846,-3.77154 -2.56777,-4.74404 -4.87911,-10.56016 -0.74365,-21.32621 9.47629,-24.67024 2.841,-0.92958 7.86534,-1.10685 10.74341,-0.37904 6.47653,1.63776 10.79834,5.72347 12.42387,11.74505 0.3003,1.11242 0.43799,2.54922 0.44111,4.60293 0.008,4.67158 -0.76917,6.93471 -4.75743,13.87021 -2.76159,4.80238 -3.76484,7.15027 -3.96329,9.27547 l -0.15039,1.61055 -2.11324,0 -2.11323,0 0.16046,-1.56618 c 0.36551,-3.5676 1.54983,-6.41904 5.46012,-13.14582 2.89355,-4.97774 3.80679,-8.55178 3.16198,-12.3746 -1.02599,-6.0827 -6.26854,-10.24905 -12.9459,-10.28831 -2.78969,-0.0164 -4.48794,0.32363 -6.6255,1.32668 -5.48948,2.5759 -8.14476,8.47966 -6.59035,14.65288 0.60346,2.39658 1.6802,4.68944 4.35897,9.28222 1.02282,1.75367 2.19358,3.99292 2.60165,4.97611 0.7624,1.83685 1.53027,5.03832 1.53027,6.38009 l 0,0.75693 -2.11488,0 -2.11484,0 0,-0.96904 z m -18.65799,-9.39085 c -0.4119,-0.90841 -0.74834,-1.77613 -0.74764,-1.92825 5.9e-4,-0.15214 1.65215,-1.0153 3.66989,-1.91821 l 3.66864,-1.64159 0.35189,0.64638 c 0.19353,0.35552 0.60607,1.22081 0.91674,1.92288 l 0.56486,1.27656 -3.65362,1.65096 c -2.00949,0.90805 -3.73647,1.64918 -3.83775,1.64697 -0.10127,-0.003 -0.52113,-0.7473 -0.93301,-1.6557 z m 50.00758,0.23025 c -1.84738,-0.76072 -3.40275,-1.42111 -3.45636,-1.46754 -0.17418,-0.15076 1.32508,-3.82883 1.56074,-3.82883 0.20853,0 7.11615,2.72763 7.34247,2.89938 0.0536,0.0406 -0.22417,0.91647 -0.61733,1.94619 -0.4688,1.22788 -0.84486,1.86562 -1.09271,1.85306 -0.20784,-0.0109 -1.88939,-0.64155 -3.73681,-1.40226 z m -53.32748,-13.17522 c -0.0912,-0.0913 -0.16587,-1.0429 -0.16587,-2.11487 l 0,-1.94896 4.35411,0 4.35411,0 0,2.11483 0,2.11485 -4.18824,0 c -2.30353,0 -4.26288,-0.0745 -4.35411,-0.16585 z m 52.82989,-1.94313 0,-2.1207 4.36415,0 4.36416,0 -0.0722,2.05265 -0.0723,2.05266 -4.29191,0.068 -4.29192,0.0681 0,-2.12073 z m -45.90548,-11.21514 c -1.64174,-1.1703 -3.13259,-2.27364 -3.31301,-2.45178 -0.27089,-0.26749 -0.12529,-0.61397 0.83597,-1.98908 0.64021,-0.91583 1.23841,-1.63192 1.32933,-1.5913 0.58537,0.2614 6.47705,4.59365 6.48631,4.76954 0.0101,0.18748 -2.16606,3.39048 -2.30329,3.39048 -0.0277,0 -1.39357,-0.95754 -3.03531,-2.12786 z m 43.30899,0.54602 c -0.62458,-0.87532 -1.13047,-1.68918 -1.12419,-1.80864 0.0101,-0.17589 5.90094,-4.50814 6.48632,-4.76954 0.24205,-0.10814 2.48987,3.18192 2.33983,3.42466 -0.10891,0.17623 -5.42422,4.04452 -6.27131,4.56402 -0.18736,0.11493 -0.70939,-0.39977 -1.43065,-1.4105 z m -34.41968,-10.27408 c -0.99553,-1.8655 -1.77928,-3.41544 -1.74164,-3.44434 0.65877,-0.50633 3.47794,-1.86545 3.64949,-1.75943 0.26707,0.16505 3.50989,6.25521 3.50989,6.59175 0,0.21443 -3.07124,2.01092 -3.42964,2.00614 -0.0979,0 -0.99256,-1.52868 -1.9881,-3.39412 z m 25.88206,2.48601 c -0.85524,-0.48172 -1.55502,-0.9756 -1.55502,-1.09754 0,-0.33688 3.24259,-6.42702 3.5099,-6.59224 0.17154,-0.10607 2.99072,1.2531 3.64949,1.75943 0.16253,0.12489 -3.5759,6.83464 -3.80052,6.82113 -0.13684,-0.009 -0.94857,-0.40907 -1.80385,-0.89078 z m -13.00012,-6.18049 0,-3.8565 2.11484,0 2.11489,0 0,3.8565 0,3.85648 -2.11489,0 -2.11484,0 0,-3.85648 z"
         style="fill:#d45500" />
      <ellipse
         style="opacity:0.981;fill:#ffffff;fill-opacity:1;stroke:#000000;stroke-width:2.34506917;stroke-linecap:round;stroke-linejoin:round;stroke-miterlimit:4;stroke-dasharray:none;stroke-dashoffset:0;stroke-opacity:1"
         id="path4201-9-9"
         cx="1092.2043"
         cy="-206.55556"
         rx="46.063858"
         ry="23.031929" />
      <path
         style="fill:none;fill-rule:evenodd;stroke:#000000;stroke-width:2.34506917;stroke-linecap:butt;stroke-linejoin:miter;stroke-opacity:1"
         d="m 1074.4877,-163.34731 12.0295,-20.06142 8.106,0.22207 z"
         id="path5063-0"
         inkscape:connector-curvature="0"
         sodipodi:nodetypes="cccc" />
      <path
         style="fill:#ffffff;fill-opacity:1;fill-rule:evenodd;stroke:none;stroke-width:1px;stroke-linecap:butt;stroke-linejoin:miter;stroke-opacity:1"
         d="m 1087.0354,-181.9652 3.2942,-5.77414 c 0,0 7.1066,0.62923 6.9586,0.62923 -0.148,0 -7.8469,7.2917 -7.8469,7.2917 z"
         id="path5065-7"
         inkscape:connector-curvature="0"
         sodipodi:nodetypes="ccscc" />
      <path
         style="fill:none;fill-rule:evenodd;stroke:#000000;stroke-width:2.34506917;stroke-linecap:butt;stroke-linejoin:miter;stroke-opacity:1"
         d="m 1109.3231,-157.84964 -2.7286,-25.40376 -6.9336,-0.0889 z"
         id="path5063-2-8"
         inkscape:connector-curvature="0"
         sodipodi:nodetypes="cccc"
         inkscape:transform-center-x="-1.4296777"
         inkscape:transform-center-y="13.14589" />
      <path
         style="fill:#ffffff;fill-opacity:1;fill-rule:evenodd;stroke:none;stroke-width:1px;stroke-linecap:butt;stroke-linejoin:miter;stroke-opacity:1"
         d="m 1105.7407,-180.01349 -0.5688,-6.62337 c 0,0 -6.7153,-2.40931 -6.5809,-2.34722 0.1344,0.0621 4.0653,9.91042 4.0653,9.91042 z"
         id="path5065-1-6"
         inkscape:connector-curvature="0"
         sodipodi:nodetypes="ccscc"
         inkscape:transform-center-x="0.7494174"
         inkscape:transform-center-y="0.19357872" />
      <path
         inkscape:connector-curvature="0"
         id="path4233-8"
         d="m 1094.2926,-187.03765 c -0.4463,-0.25482 -1.9692,-1.6025 -1.9692,-1.74273 0,-0.0682 1.4441,-0.12399 3.2091,-0.12399 1.765,0 3.2091,0.0392 3.2091,0.0871 0,0.11387 -1.3928,1.37151 -1.8813,1.69879 -0.4431,0.2968 -2.098,0.3489 -2.5677,0.0808 z m -2.7679,-3.23181 c -0.3162,-0.23121 -0.3635,-0.98762 -0.083,-1.32569 0.1612,-0.19429 0.7321,-0.22657 4.0077,-0.22657 3.9177,0 4.2531,0.0453 4.3204,0.58348 0.056,0.44339 -0.013,0.71407 -0.2365,0.93771 -0.1964,0.19651 -0.7649,0.22921 -3.9834,0.22921 -2.933,0 -3.8135,-0.0433 -4.0253,-0.19814 z m -0.287,-3.18925 c -0.3056,-0.43632 -0.2858,-0.78402 0.065,-1.13449 0.2772,-0.27708 0.4863,-0.29172 4.1669,-0.29172 2.2344,0 3.9874,0.0601 4.1404,0.14203 0.3881,0.20773 0.5034,0.84075 0.2293,1.25915 l -0.2289,0.34921 -4.0726,0 c -4.0432,0 -4.0742,-0.002 -4.2997,-0.32418 z m -0.8105,-3.30712 c 0,-1.26401 -0.7279,-3.01413 -2.5217,-6.06309 -0.5646,-0.95956 -1.2421,-2.21113 -1.5055,-2.78128 -2.8604,-6.19107 -0.4359,-12.50285 5.5557,-14.46335 1.6656,-0.54498 4.6112,-0.64891 6.2985,-0.22222 3.7969,0.96017 6.3307,3.35548 7.2837,6.88574 0.1761,0.65218 0.2568,1.49452 0.2586,2.69855 0.01,2.73879 -0.4509,4.06559 -2.7891,8.13165 -1.619,2.81548 -2.2072,4.19197 -2.3235,5.4379 l -0.088,0.94422 -1.2389,0 -1.239,0 0.094,-0.91821 c 0.2143,-2.09156 0.9086,-3.76327 3.2011,-7.70696 1.6964,-2.91829 2.2318,-5.01363 1.8538,-7.25482 -0.6015,-3.56609 -3.6751,-6.00869 -7.5898,-6.0317 -1.6355,-0.01 -2.6312,0.18973 -3.8843,0.77779 -3.2183,1.51016 -4.775,4.97134 -3.8637,8.5905 0.3538,1.40504 0.985,2.74927 2.5555,5.44186 0.5996,1.02812 1.286,2.34092 1.5252,2.91733 0.447,1.07689 0.8972,2.95381 0.8972,3.74044 l 0,0.44377 -1.2399,0 -1.2398,0 0,-0.56812 z m -10.9386,-5.50555 c -0.2415,-0.53257 -0.4387,-1.04129 -0.4383,-1.13047 3e-4,-0.0892 0.9686,-0.59524 2.1515,-1.12458 l 2.1508,-0.96241 0.2063,0.37895 c 0.1135,0.20843 0.3554,0.71572 0.5375,1.12732 l 0.3311,0.7484 -2.1419,0.96791 c -1.1782,0.53236 -2.1906,0.96686 -2.25,0.96556 -0.059,-0.002 -0.3055,-0.43811 -0.547,-0.97068 z m 29.3178,0.13499 c -1.0831,-0.44599 -1.9949,-0.83315 -2.0264,-0.86037 -0.102,-0.0884 0.7769,-2.24472 0.9151,-2.24472 0.1222,0 4.1719,1.59912 4.3046,1.69981 0.032,0.0238 -0.1314,0.5373 -0.3619,1.14099 -0.2749,0.71986 -0.4953,1.09375 -0.6406,1.08639 -0.1219,-0.006 -1.1077,-0.37612 -2.1908,-0.8221 z m -31.2642,-7.7242 c -0.053,-0.0535 -0.097,-0.61142 -0.097,-1.23988 l 0,-1.14261 2.5526,0 2.5528,0 0,1.23985 0,1.23987 -2.4555,0 c -1.3505,0 -2.4992,-0.0437 -2.5527,-0.0972 z m 30.9725,-1.1392 0,-1.24329 2.5586,0 2.5585,0 -0.042,1.2034 -0.042,1.20341 -2.5162,0.0399 -2.5162,0.0399 0,-1.24332 z m -26.9129,-6.57507 c -0.9625,-0.6861 -1.8366,-1.33296 -1.9423,-1.43739 -0.1588,-0.15682 -0.073,-0.35995 0.4901,-1.16614 0.3753,-0.53692 0.726,-0.95674 0.7793,-0.93292 0.3432,0.15325 3.7973,2.6931 3.8027,2.79622 0.01,0.10991 -1.2698,1.98773 -1.3503,1.98773 -0.016,0 -0.817,-0.56138 -1.7795,-1.2475 z m 25.3906,0.32012 c -0.3661,-0.51317 -0.6627,-0.99031 -0.659,-1.06035 0.01,-0.10312 3.4595,-2.64297 3.8027,-2.79622 0.1419,-0.0634 1.4597,1.86545 1.3718,2.00776 -0.064,0.10332 -3.1801,2.37117 -3.6767,2.67574 -0.1099,0.0674 -0.4159,-0.23437 -0.8388,-0.82693 z m -20.1791,-6.02336 c -0.5836,-1.09368 -1.0431,-2.00236 -1.021,-2.0193 0.3862,-0.29685 2.0389,-1.09366 2.1395,-1.0315 0.1566,0.0968 2.0578,3.66723 2.0578,3.86453 0,0.12571 -1.8006,1.17893 -2.0107,1.17613 -0.058,0 -0.5819,-0.89621 -1.1656,-1.98986 z m 15.1738,1.45747 c -0.5014,-0.28242 -0.9116,-0.57197 -0.9116,-0.64345 0,-0.19751 1.901,-3.76796 2.0577,-3.86482 0.1006,-0.0622 1.7534,0.73465 2.1396,1.0315 0.095,0.0732 -2.0964,4.00692 -2.2282,3.999 -0.08,-0.005 -0.556,-0.23982 -1.0575,-0.52223 z m -7.6215,-3.62342 0,-2.26094 1.2398,0 1.2399,0 0,2.26094 0,2.26093 -1.2399,0 -1.2398,0 0,-2.26093 z"
         style="fill:#d45500" />
      <ellipse
         style="opacity:0.981;fill:#ffffff;fill-opacity:1;stroke:#000000;stroke-width:2.34506917;stroke-linecap:round;stroke-linejoin:round;stroke-miterlimit:4;stroke-dasharray:none;stroke-dashoffset:0;stroke-opacity:1"
         id="path4201-9-9-5"
         cx="1218.8213"
         cy="-208.56667"
         rx="46.063858"
         ry="23.031929" />
      <path
         style="fill:none;fill-rule:evenodd;stroke:#000000;stroke-width:2.34506917;stroke-linecap:butt;stroke-linejoin:miter;stroke-opacity:1"
         d="m 1201.1046,-165.35842 12.0295,-20.06142 8.106,0.22207 z"
         id="path5063-0-2"
         inkscape:connector-curvature="0"
         sodipodi:nodetypes="cccc" />
      <path
         style="fill:#ffffff;fill-opacity:1;fill-rule:evenodd;stroke:none;stroke-width:1px;stroke-linecap:butt;stroke-linejoin:miter;stroke-opacity:1"
         d="m 1213.6523,-183.97631 3.2942,-5.77414 c 0,0 7.1066,0.62923 6.9586,0.62923 -0.148,0 -7.8469,7.2917 -7.8469,7.2917 z"
         id="path5065-7-3"
         inkscape:connector-curvature="0"
         sodipodi:nodetypes="ccscc" />
      <path
         inkscape:connector-curvature="0"
         id="path4233-8-4"
         d="m 1220.9095,-189.04876 c -0.4463,-0.25482 -1.9692,-1.6025 -1.9692,-1.74273 0,-0.0682 1.4441,-0.12399 3.2091,-0.12399 1.765,0 3.2091,0.0392 3.2091,0.0871 0,0.11387 -1.3928,1.37151 -1.8813,1.69879 -0.4431,0.2968 -2.098,0.3489 -2.5677,0.0808 z m -2.7679,-3.23181 c -0.3162,-0.23121 -0.3635,-0.98762 -0.083,-1.32569 0.1612,-0.19429 0.7321,-0.22657 4.0077,-0.22657 3.9177,0 4.2531,0.0453 4.3204,0.58348 0.056,0.44339 -0.013,0.71407 -0.2365,0.93771 -0.1964,0.19651 -0.7649,0.22921 -3.9834,0.22921 -2.933,0 -3.8135,-0.0433 -4.0253,-0.19814 z m -0.287,-3.18925 c -0.3056,-0.43632 -0.2858,-0.78402 0.065,-1.13449 0.2772,-0.27708 0.4863,-0.29172 4.1669,-0.29172 2.2344,0 3.9874,0.0601 4.1404,0.14203 0.3881,0.20773 0.5034,0.84075 0.2293,1.25915 l -0.2289,0.34921 -4.0726,0 c -4.0432,0 -4.0742,-0.002 -4.2997,-0.32418 z m -0.8105,-3.30712 c 0,-1.26401 -0.7279,-3.01413 -2.5217,-6.06309 -0.5646,-0.95956 -1.2421,-2.21113 -1.5055,-2.78128 -2.8604,-6.19107 -0.4359,-12.50285 5.5557,-14.46335 1.6656,-0.54498 4.6112,-0.64891 6.2985,-0.22222 3.7969,0.96017 6.3307,3.35548 7.2837,6.88574 0.1761,0.65218 0.2568,1.49452 0.2586,2.69855 0.01,2.73879 -0.4509,4.06559 -2.7891,8.13165 -1.619,2.81548 -2.2072,4.19197 -2.3235,5.4379 l -0.088,0.94422 -1.2389,0 -1.239,0 0.094,-0.91821 c 0.2143,-2.09156 0.9086,-3.76327 3.2011,-7.70696 1.6964,-2.91829 2.2318,-5.01363 1.8538,-7.25482 -0.6015,-3.56609 -3.6751,-6.00869 -7.5898,-6.0317 -1.6355,-0.01 -2.6312,0.18973 -3.8843,0.77779 -3.2183,1.51016 -4.775,4.97134 -3.8637,8.5905 0.3538,1.40504 0.985,2.74927 2.5555,5.44186 0.5996,1.02812 1.286,2.34092 1.5252,2.91733 0.447,1.07689 0.8972,2.95381 0.8972,3.74044 l 0,0.44377 -1.2399,0 -1.2398,0 0,-0.56812 z m -10.9386,-5.50555 c -0.2415,-0.53257 -0.4387,-1.04129 -0.4383,-1.13047 3e-4,-0.0892 0.9686,-0.59524 2.1515,-1.12458 l 2.1508,-0.96241 0.2063,0.37895 c 0.1135,0.20843 0.3554,0.71572 0.5375,1.12732 l 0.3311,0.7484 -2.1419,0.96791 c -1.1782,0.53236 -2.1906,0.96686 -2.25,0.96556 -0.059,-0.002 -0.3055,-0.43811 -0.547,-0.97068 z m 29.3178,0.13499 c -1.0831,-0.44599 -1.9949,-0.83315 -2.0264,-0.86037 -0.102,-0.0884 0.7769,-2.24472 0.9151,-2.24472 0.1222,0 4.1719,1.59912 4.3046,1.69981 0.032,0.0238 -0.1314,0.5373 -0.3619,1.14099 -0.2749,0.71986 -0.4953,1.09375 -0.6406,1.08639 -0.1219,-0.006 -1.1077,-0.37612 -2.1908,-0.8221 z m -31.2642,-7.7242 c -0.053,-0.0535 -0.097,-0.61142 -0.097,-1.23988 l 0,-1.14261 2.5526,0 2.5528,0 0,1.23985 0,1.23987 -2.4555,0 c -1.3505,0 -2.4992,-0.0437 -2.5527,-0.0972 z m 30.9725,-1.1392 0,-1.24329 2.5586,0 2.5585,0 -0.042,1.2034 -0.042,1.20341 -2.5162,0.0399 -2.5162,0.0399 0,-1.24332 z m -26.9129,-6.57507 c -0.9625,-0.6861 -1.8366,-1.33296 -1.9423,-1.43739 -0.1588,-0.15682 -0.073,-0.35995 0.4901,-1.16614 0.3753,-0.53692 0.726,-0.95674 0.7793,-0.93292 0.3432,0.15325 3.7973,2.6931 3.8027,2.79622 0.01,0.10991 -1.2698,1.98773 -1.3503,1.98773 -0.016,0 -0.817,-0.56138 -1.7795,-1.2475 z m 25.3906,0.32012 c -0.3661,-0.51317 -0.6627,-0.99031 -0.659,-1.06035 0.01,-0.10312 3.4595,-2.64297 3.8027,-2.79622 0.1419,-0.0634 1.4597,1.86545 1.3718,2.00776 -0.064,0.10332 -3.1801,2.37117 -3.6767,2.67574 -0.1099,0.0674 -0.4159,-0.23437 -0.8388,-0.82693 z m -20.1791,-6.02336 c -0.5836,-1.09368 -1.0431,-2.00236 -1.021,-2.0193 0.3862,-0.29685 2.0389,-1.09366 2.1395,-1.0315 0.1566,0.0968 2.0578,3.66723 2.0578,3.86453 0,0.12571 -1.8006,1.17893 -2.0107,1.17613 -0.058,0 -0.5819,-0.89621 -1.1656,-1.98986 z m 15.1738,1.45747 c -0.5014,-0.28242 -0.9116,-0.57197 -0.9116,-0.64345 0,-0.19751 1.901,-3.76796 2.0577,-3.86482 0.1006,-0.0622 1.7534,0.73465 2.1396,1.0315 0.095,0.0732 -2.0964,4.00692 -2.2282,3.999 -0.08,-0.005 -0.556,-0.23982 -1.0575,-0.52223 z m -7.6215,-3.62342 0,-2.26094 1.2398,0 1.2399,0 0,2.26094 0,2.26093 -1.2399,0 -1.2398,0 0,-2.26093 z"
         style="fill:#d45500" />
      <ellipse
         style="opacity:0.981;fill:#ffffff;fill-opacity:1;stroke:#000000;stroke-width:3.22496915;stroke-linecap:round;stroke-linejoin:round;stroke-miterlimit:4;stroke-dasharray:none;stroke-dashoffset:0;stroke-opacity:1"
         id="path4201-9-6"
         cx="1148.5396"
         cy="-219.26689"
         rx="63.347607"
         ry="31.673803" />
      <path
         style="fill:none;fill-rule:evenodd;stroke:#000000;stroke-width:3.22496915;stroke-linecap:butt;stroke-linejoin:miter;stroke-opacity:1"
         d="m 1124.1755,-159.84634 16.543,-27.58873 11.1475,0.30541 z"
         id="path5063-1"
         inkscape:connector-curvature="0"
         sodipodi:nodetypes="cccc" />
      <path
         style="fill:#ffffff;fill-opacity:1;fill-rule:evenodd;stroke:none;stroke-width:1px;stroke-linecap:butt;stroke-linejoin:miter;stroke-opacity:1"
         d="m 1141.4312,-185.4499 4.5303,-7.94067 c 0,0 9.7731,0.86533 9.5694,0.86533 -0.2036,0 -10.7912,10.02764 -10.7912,10.02764 z"
         id="path5065-79"
         inkscape:connector-curvature="0"
         sodipodi:nodetypes="ccscc" />
      <path
         style="fill:none;fill-rule:evenodd;stroke:#000000;stroke-width:3.22496915;stroke-linecap:butt;stroke-linejoin:miter;stroke-opacity:1"
         d="m 1172.0815,-152.28588 -3.7524,-34.93557 -9.5352,-0.12227 z"
         id="path5063-2-0"
         inkscape:connector-curvature="0"
         sodipodi:nodetypes="cccc"
         inkscape:transform-center-x="-1.9660985"
         inkscape:transform-center-y="18.078386" />
      <path
         style="fill:#ffffff;fill-opacity:1;fill-rule:evenodd;stroke:none;stroke-width:1px;stroke-linecap:butt;stroke-linejoin:miter;stroke-opacity:1"
         d="m 1167.1549,-182.76588 -0.7822,-9.10855 c 0,0 -9.235,-3.31332 -9.0502,-3.22792 0.1849,0.0854 5.5907,13.62893 5.5907,13.62893 z"
         id="path5065-1-5"
         inkscape:connector-curvature="0"
         sodipodi:nodetypes="ccscc"
         inkscape:transform-center-x="1.0306301"
         inkscape:transform-center-y="0.26621243" />
      <path
         inkscape:connector-curvature="0"
         id="path4233-5"
         d="m 1151.4114,-192.4256 c -0.6138,-0.35043 -2.708,-2.20378 -2.708,-2.39663 0,-0.0938 1.9858,-0.17051 4.4131,-0.17051 2.4273,0 4.4131,0.054 4.4131,0.11982 0,0.15658 -1.9153,1.88611 -2.5871,2.33619 -0.6094,0.40816 -2.8852,0.4798 -3.5311,0.11113 z m -3.8064,-4.44443 c -0.4349,-0.31796 -0.5,-1.35818 -0.1141,-1.8231 0.2217,-0.26719 1.0068,-0.31158 5.5114,-0.31158 5.3877,0 5.8489,0.0623 5.9414,0.80241 0.077,0.60976 -0.018,0.982 -0.325,1.28955 -0.2703,0.27024 -1.0521,0.31521 -5.4782,0.31521 -4.0335,0 -5.2444,-0.0596 -5.5355,-0.27249 z m -0.3948,-4.38589 c -0.4202,-0.60004 -0.393,-1.07819 0.089,-1.56016 0.3809,-0.38104 0.6686,-0.40118 5.7302,-0.40118 3.0728,0 5.4835,0.0827 5.6939,0.19532 0.5338,0.28567 0.6924,1.15621 0.3154,1.73159 l -0.3147,0.48024 -5.6007,0 c -5.5603,0 -5.6031,-0.002 -5.9131,-0.44581 z m -1.1146,-4.548 c 0,-1.73828 -1.001,-4.14507 -3.468,-8.33803 -0.7763,-1.31961 -1.7079,-3.04078 -2.0701,-3.82485 -3.9339,-8.51405 -0.5997,-17.19409 7.6401,-19.89019 2.2905,-0.74947 6.3414,-0.89239 8.6619,-0.3056 5.2215,1.32043 8.7059,4.6145 10.0165,9.46936 0.2421,0.89688 0.3532,2.05528 0.3557,3.71107 0.01,3.76643 -0.6202,5.59106 -3.8357,11.18275 -2.2265,3.87189 -3.0353,5.76485 -3.1953,7.47828 l -0.1213,1.29849 -1.7038,0 -1.7037,0 0.1293,-1.26272 c 0.2947,-2.87634 1.2495,-5.1753 4.4021,-10.59871 2.333,-4.01327 3.0693,-6.89481 2.5494,-9.97692 -0.8272,-4.90414 -5.0539,-8.26323 -10.4375,-8.29488 -2.2492,-0.0132 -3.6183,0.26093 -5.3418,1.06963 -4.4258,2.0768 -6.5666,6.83665 -5.3134,11.81377 0.4865,1.93222 1.3547,3.78083 3.5144,7.48372 0.8246,1.41387 1.7686,3.21926 2.0976,4.01195 0.6147,1.48094 1.2337,4.0621 1.2337,5.1439 l 0,0.61026 -1.705,0 -1.7051,0 0,-0.78128 z m -15.0429,-7.5713 c -0.3321,-0.7324 -0.6034,-1.43199 -0.6028,-1.55463 5e-4,-0.12267 1.332,-0.81858 2.9588,-1.54654 l 2.9578,-1.32353 0.2837,0.52115 c 0.1562,0.28663 0.4887,0.98426 0.7392,1.5503 l 0.4554,1.02922 -2.9457,1.33107 c -1.6202,0.73211 -3.0126,1.32964 -3.0943,1.32786 -0.081,-0.002 -0.4201,-0.60251 -0.7521,-1.3349 z m 40.3183,0.18564 c -1.4895,-0.61333 -2.7435,-1.14576 -2.7867,-1.18319 -0.1404,-0.12155 1.0683,-3.08697 1.2583,-3.08697 0.168,0 5.7374,2.19913 5.9198,2.3376 0.044,0.0327 -0.1807,0.7389 -0.4977,1.56911 -0.378,0.98996 -0.6811,1.50414 -0.881,1.49401 -0.1675,-0.008 -1.5234,-0.51725 -3.0127,-1.13056 z m -42.995,-10.62242 c -0.074,-0.0736 -0.1336,-0.84083 -0.1336,-1.70509 l 0,-1.57134 3.5104,0 3.5104,0 0,1.70506 0,1.70509 -3.3767,0 c -1.8572,0 -3.4369,-0.0601 -3.5105,-0.13372 z m 42.5937,-1.56664 0,-1.70979 3.5187,0 3.5185,0 -0.058,1.65494 -0.058,1.65493 -3.4603,0.0548 -3.4603,0.0549 0,-1.70982 z m -37.011,-9.04211 c -1.3236,-0.94355 -2.5254,-1.83311 -2.671,-1.97673 -0.2183,-0.21566 -0.101,-0.49502 0.674,-1.60368 0.5161,-0.73839 0.9984,-1.31572 1.0718,-1.28298 0.4719,0.21076 5.222,3.70359 5.2295,3.84541 0.01,0.15115 -1.7464,2.73355 -1.857,2.73355 -0.023,0 -1.1235,-0.77202 -2.4473,-1.71557 z m 34.9176,0.44022 c -0.5035,-0.70572 -0.9113,-1.36189 -0.9063,-1.4582 0.01,-0.14182 4.7576,-3.63465 5.2295,-3.84541 0.1951,-0.0872 2.0075,2.56541 1.8865,2.76111 -0.088,0.14208 -4.3732,3.26086 -5.0562,3.6797 -0.151,0.0927 -0.5719,-0.32231 -1.1535,-1.1372 z m -27.7506,-8.2834 c -0.8026,-1.50405 -1.4345,-2.75367 -1.4041,-2.77697 0.531,-0.40822 2.804,-1.50401 2.9424,-1.41852 0.2153,0.13306 2.8298,5.04321 2.8298,5.31454 0,0.17289 -2.4762,1.62129 -2.7651,1.61743 -0.079,0 -0.8003,-1.23249 -1.603,-2.73648 z m 20.8673,2.00433 c -0.6896,-0.38839 -1.2538,-0.78657 -1.2538,-0.88488 0,-0.27161 2.6144,-5.18174 2.8298,-5.31494 0.1384,-0.0855 2.4112,1.0103 2.9424,1.41852 0.1311,0.10073 -2.883,5.51038 -3.064,5.49948 -0.1105,-0.007 -0.7649,-0.3298 -1.4544,-0.71818 z m -10.4813,-4.98297 0,-3.10927 1.705,0 1.7051,0 0,3.10927 0,3.10925 -1.7051,0 -1.705,0 0,-3.10925 z"
         style="fill:#d45500" />
      <ellipse
         style="opacity:0.981;fill:#ffffff;fill-opacity:1;stroke:#000000;stroke-width:2.11939669;stroke-linecap:round;stroke-linejoin:round;stroke-miterlimit:4;stroke-dasharray:none;stroke-dashoffset:0;stroke-opacity:1"
         id="path4201-9-8"
         cx="-1029.9227"
         cy="-172.51337"
         rx="41.631004"
         ry="20.815502"
         transform="scale(-1,1)" />
      <path
         style="fill:none;fill-rule:evenodd;stroke:#000000;stroke-width:2.11939669;stroke-linecap:butt;stroke-linejoin:miter;stroke-opacity:1"
         d="m 1045.9344,-133.46315 -10.8719,-18.13086 -7.3259,0.2007 z"
         id="path5063-6"
         inkscape:connector-curvature="0"
         sodipodi:nodetypes="cccc" />
      <path
         style="fill:#ffffff;fill-opacity:1;fill-rule:evenodd;stroke:none;stroke-width:1px;stroke-linecap:butt;stroke-linejoin:miter;stroke-opacity:1"
         d="m 1034.5941,-150.2894 -2.9771,-5.21848 c 0,0 -6.4227,0.56869 -6.289,0.56869 0.1339,0 7.0918,6.58999 7.0918,6.58999 z"
         id="path5065-0"
         inkscape:connector-curvature="0"
         sodipodi:nodetypes="ccscc" />
      <path
         inkscape:connector-curvature="0"
         id="path4233-1"
         d="m 1028.0354,-154.87371 c 0.4034,-0.2303 1.7797,-1.44829 1.7797,-1.57502 0,-0.0616 -1.3052,-0.11206 -2.9003,-0.11206 -1.5951,0 -2.9003,0.0354 -2.9003,0.0787 0,0.1029 1.2588,1.23952 1.7003,1.5353 0.4004,0.26824 1.8961,0.31533 2.3206,0.0731 z m 2.5015,-2.9208 c 0.2858,-0.20896 0.3285,-0.89258 0.075,-1.19812 -0.1458,-0.1756 -0.6618,-0.20477 -3.6221,-0.20477 -3.5407,0 -3.8438,0.041 -3.9046,0.52733 -0.05,0.40073 0.011,0.64536 0.2137,0.84748 0.1775,0.17759 0.6913,0.20715 3.6001,0.20715 2.6507,0 3.4465,-0.0392 3.6379,-0.17907 z m 0.2594,-2.88234 c 0.2762,-0.39434 0.2583,-0.70857 -0.059,-1.02531 -0.2505,-0.25042 -0.4395,-0.26365 -3.7659,-0.26365 -2.0194,0 -3.6037,0.0543 -3.742,0.12835 -0.3507,0.18775 -0.4549,0.75985 -0.2072,1.13798 l 0.2069,0.31561 3.6807,0 c 3.654,0 3.6821,-0.002 3.8859,-0.29298 z m 0.7325,-2.98887 c 0,-1.14237 0.6579,-2.72407 2.2791,-5.47962 0.5102,-0.86723 1.1224,-1.99835 1.3605,-2.51363 2.5852,-5.59529 0.394,-11.29968 -5.021,-13.0715 -1.5053,-0.49254 -4.1675,-0.58647 -5.6924,-0.20084 -3.4316,0.86776 -5.7215,3.03258 -6.5828,6.22311 -0.1591,0.58941 -0.2321,1.3507 -0.2337,2.43885 -0.01,2.47524 0.4076,3.67436 2.5207,7.34912 1.4633,2.54454 1.9948,3.78857 2.0999,4.9146 l 0.08,0.85335 1.1198,0 1.1197,0 -0.085,-0.82984 c -0.1936,-1.89029 -0.8212,-3.40112 -2.893,-6.9653 -1.5331,-2.63745 -2.017,-4.53115 -1.6754,-6.55667 0.5436,-3.22291 3.3214,-5.43045 6.8593,-5.45126 1.4781,-0.009 2.378,0.17148 3.5106,0.70294 2.9086,1.36484 4.3155,4.49295 3.4919,7.76382 -0.3198,1.26983 -0.8903,2.4847 -2.3096,4.91818 -0.5419,0.92918 -1.1623,2.11564 -1.3785,2.63659 -0.4039,0.97326 -0.8108,2.66955 -0.8108,3.38048 l 0,0.40106 1.1206,0 1.1205,0 0,-0.51344 z m 9.8859,-4.97574 c 0.2183,-0.48131 0.3966,-0.94107 0.3963,-1.02168 -4e-4,-0.0806 -0.8756,-0.53795 -1.9446,-1.01636 l -1.9438,-0.86979 -0.1865,0.34248 c -0.1025,0.18837 -0.3211,0.64684 -0.4857,1.01884 l -0.2993,0.67638 1.9359,0.87476 c 1.0647,0.48113 1.9797,0.87382 2.0334,0.87265 0.054,-0.002 0.2761,-0.39596 0.4943,-0.87728 z m -26.4964,0.122 c 0.9788,-0.40307 1.8029,-0.75297 1.8313,-0.77758 0.092,-0.0799 -0.7021,-2.02869 -0.8269,-2.02869 -0.1105,0 -3.7705,1.44522 -3.8905,1.53622 -0.028,0.0215 0.1188,0.4856 0.3271,1.03119 0.2485,0.6506 0.4476,0.9885 0.579,0.98185 0.1101,-0.006 1.0011,-0.33993 1.98,-0.74299 z m 28.2555,-6.98088 c 0.048,-0.0484 0.088,-0.55258 0.088,-1.12056 l 0,-1.03266 -2.307,0 -2.3071,0 0,1.12054 0,1.12056 2.2192,0 c 1.2205,0 2.2587,-0.0394 2.307,-0.0879 z m -27.9919,-1.02956 0,-1.12366 -2.3123,0 -2.3124,0 0.038,1.0876 0.038,1.0876 2.2741,0.0361 2.2741,0.036 0,-1.12367 z m 24.323,-5.94234 c 0.8698,-0.62008 1.6598,-1.20469 1.7554,-1.29907 0.1435,-0.14173 0.067,-0.32531 -0.4429,-1.05391 -0.3392,-0.48525 -0.6563,-0.86468 -0.7044,-0.84315 -0.3102,0.1385 -3.4318,2.43394 -3.4367,2.52714 -0.01,0.0993 1.1476,1.79644 1.2204,1.79644 0.014,0 0.7383,-0.50735 1.6082,-1.12745 z m -22.9472,0.28931 c 0.3309,-0.46379 0.599,-0.89501 0.5956,-0.9583 -0.01,-0.0932 -3.1266,-2.38864 -3.4368,-2.52714 -0.1283,-0.0573 -1.3192,1.68593 -1.2398,1.81455 0.058,0.0934 2.8741,2.14298 3.3229,2.41824 0.099,0.0609 0.3759,-0.21181 0.7581,-0.74735 z m 18.2372,-5.44371 c 0.5275,-0.98843 0.9427,-1.80967 0.9228,-1.82498 -0.349,-0.26828 -1.8428,-0.98841 -1.9337,-0.93224 -0.1415,0.0875 -1.8597,3.31433 -1.8597,3.49264 0,0.11361 1.6273,1.06548 1.8172,1.06295 0.051,0 0.5259,-0.80997 1.0534,-1.79837 z m -13.7136,1.31721 c 0.4532,-0.25524 0.8239,-0.51692 0.8239,-0.58153 0,-0.17849 -1.718,-3.40535 -1.8597,-3.4929 -0.091,-0.0562 -1.5846,0.66396 -1.9337,0.93224 -0.086,0.0661 1.8947,3.62132 2.0138,3.61417 0.072,-0.005 0.5025,-0.21675 0.9557,-0.47198 z m 6.8881,-3.27473 0,-2.04336 -1.1205,0 -1.1206,0 0,2.04336 0,2.04336 1.1206,0 1.1205,0 0,-2.04336 z"
         style="fill:#d45500" />
      <ellipse
         style="opacity:0.981;fill:#ffffff;fill-opacity:1;stroke:#000000;stroke-width:1.46453893;stroke-linecap:round;stroke-linejoin:round;stroke-miterlimit:4;stroke-dasharray:none;stroke-dashoffset:0;stroke-opacity:1"
         id="path4201-9-7"
         cx="1247.5092"
         cy="-170.72639"
         rx="28.767727"
         ry="14.383863" />
      <path
         style="fill:none;fill-rule:evenodd;stroke:#000000;stroke-width:1.46453893;stroke-linecap:butt;stroke-linejoin:miter;stroke-opacity:1"
         d="m 1236.4447,-143.74204 7.5127,-12.52873 5.0623,0.1387 z"
         id="path5063-8"
         inkscape:connector-curvature="0"
         sodipodi:nodetypes="cccc" />
      <path
         style="fill:#ffffff;fill-opacity:1;fill-rule:evenodd;stroke:none;stroke-width:1px;stroke-linecap:butt;stroke-linejoin:miter;stroke-opacity:1"
         d="m 1244.281,-155.36925 2.0573,-3.60606 c 0,0 4.4382,0.39296 4.3457,0.39296 -0.092,0 -4.9005,4.5538 -4.9005,4.5538 z"
         id="path5065-6"
         inkscape:connector-curvature="0"
         sodipodi:nodetypes="ccscc" />
      <path
         inkscape:connector-curvature="0"
         id="path4233-17"
         d="m 1248.8133,-158.53709 c -0.2788,-0.15914 -1.2298,-1.0008 -1.2298,-1.08837 0,-0.0426 0.9018,-0.0774 2.0042,-0.0774 1.1022,0 2.004,0.0245 2.004,0.0544 0,0.0711 -0.8698,0.85653 -1.1749,1.06093 -0.2767,0.18536 -1.3102,0.21789 -1.6035,0.0504 z m -1.7286,-2.01833 c -0.1975,-0.14439 -0.2271,-0.61678 -0.052,-0.82791 0.1006,-0.12134 0.4572,-0.1415 2.5029,-0.1415 2.4467,0 2.6561,0.0283 2.6981,0.36439 0.035,0.27691 -0.01,0.44595 -0.1476,0.58562 -0.1227,0.12272 -0.4778,0.14315 -2.4878,0.14315 -1.8317,0 -2.3816,-0.027 -2.5138,-0.12375 z m -0.1792,-1.99174 c -0.191,-0.2725 -0.1786,-0.48964 0.041,-0.70851 0.1731,-0.17304 0.3037,-0.18218 2.6023,-0.18218 1.3954,0 2.4902,0.0375 2.5857,0.0887 0.2425,0.12974 0.3145,0.52507 0.1432,0.78636 l -0.1429,0.21809 -2.5434,0 c -2.5251,0 -2.5445,-7.6e-4 -2.6852,-0.20245 z m -0.5063,-2.06536 c 0,-0.7894 -0.4546,-1.88238 -1.5749,-3.78651 -0.3525,-0.59927 -0.7756,-1.38089 -0.9401,-1.73696 -1.7864,-3.86644 -0.2723,-7.80826 3.4696,-9.03263 1.0402,-0.34035 2.8798,-0.40526 3.9335,-0.13878 2.3713,0.59964 3.9537,2.09556 4.5489,4.30027 0.1099,0.40729 0.1603,0.93336 0.1615,1.68529 0,1.71043 -0.2817,2.53904 -1.7419,5.07836 -1.0111,1.75833 -1.3784,2.61797 -1.4511,3.39608 l -0.055,0.58968 -0.7737,0 -0.7737,0 0.058,-0.57343 c 0.1338,-1.30623 0.5675,-2.35024 1.9991,-4.81315 1.0595,-1.82252 1.3939,-3.1311 1.1577,-4.53077 -0.3756,-2.22708 -2.295,-3.75253 -4.7399,-3.7669 -1.0214,-0.006 -1.6431,0.11848 -2.4258,0.48574 -2.0099,0.94313 -2.9821,3.1047 -2.4129,5.36493 0.2209,0.87747 0.6151,1.71697 1.5959,3.39854 0.3745,0.64208 0.8032,1.46195 0.9526,1.82193 0.2791,0.67253 0.5603,1.8447 0.5603,2.33597 l 0,0.27714 -0.7744,0 -0.7743,0 0,-0.3548 z m -6.8313,-3.43832 c -0.1509,-0.33259 -0.274,-0.6503 -0.2738,-0.706 3e-4,-0.0557 0.6049,-0.37173 1.3437,-0.70232 l 1.3432,-0.60105 0.1289,0.23667 c 0.071,0.13017 0.2219,0.44698 0.3356,0.70403 l 0.2068,0.46739 -1.3377,0.60448 c -0.7357,0.33247 -1.368,0.60382 -1.4051,0.60301 -0.037,-7.7e-4 -0.1909,-0.27361 -0.3416,-0.60621 z m 18.3095,0.0843 c -0.6764,-0.27852 -1.2459,-0.52031 -1.2655,-0.53731 -0.064,-0.0552 0.4851,-1.40187 0.5714,-1.40187 0.077,0 2.6055,0.99868 2.6884,1.06156 0.02,0.0149 -0.082,0.33556 -0.226,0.71257 -0.1717,0.44957 -0.3094,0.68307 -0.4001,0.67847 -0.076,-0.004 -0.6918,-0.23489 -1.3682,-0.51342 z m -19.525,-4.8239 c -0.033,-0.0334 -0.061,-0.38184 -0.061,-0.77433 l 0,-0.71358 1.5942,0 1.5942,0 0,0.77431 0,0.77433 -1.5335,0 c -0.8434,0 -1.5608,-0.0273 -1.5942,-0.0607 z m 19.3428,-0.71145 0,-0.77646 1.5979,0 1.5979,0 -0.026,0.75155 -0.026,0.75155 -1.5714,0.0249 -1.5715,0.025 0,-0.77647 z m -16.8076,-4.10625 c -0.6011,-0.42849 -1.1469,-0.83246 -1.213,-0.89768 -0.099,-0.0979 -0.046,-0.2248 0.3061,-0.72828 0.2344,-0.33531 0.4534,-0.59749 0.4867,-0.58263 0.2144,0.0957 2.3715,1.6819 2.3748,1.7463 0,0.0686 -0.793,1.24138 -0.8433,1.24138 -0.01,0 -0.5102,-0.35059 -1.1113,-0.77909 z m 15.8569,0.19992 c -0.2287,-0.32049 -0.4138,-0.61847 -0.4116,-0.66221 0,-0.0644 2.1606,-1.65058 2.3749,-1.7463 0.089,-0.0396 0.9116,1.16502 0.8567,1.2539 -0.04,0.0645 -1.986,1.48083 -2.2961,1.67104 -0.068,0.0421 -0.2598,-0.14637 -0.5239,-0.51643 z m -12.6022,-3.7617 c -0.3645,-0.68303 -0.6515,-1.25051 -0.6376,-1.2611 0.2412,-0.18538 1.2733,-0.683 1.3361,-0.64418 0.098,0.0604 1.2851,2.29025 1.2851,2.41347 0,0.0785 -1.1245,0.73627 -1.2557,0.73452 -0.036,0 -0.3634,-0.55971 -0.7279,-1.24271 z m 9.4763,0.91021 c -0.3131,-0.17637 -0.5693,-0.3572 -0.5693,-0.40185 0,-0.12334 1.1872,-2.35315 1.2851,-2.41364 0.063,-0.0388 1.095,0.4588 1.3362,0.64418 0.059,0.0458 -1.3093,2.50241 -1.3915,2.49746 -0.05,-0.003 -0.3473,-0.14977 -0.6605,-0.32615 z m -4.7598,-2.26289 0,-1.412 0.7743,0 0.7743,0 0,1.412 0,1.41199 -0.7743,0 -0.7743,0 0,-1.41199 z"
         style="fill:#d45500" />
    </g>
    <path
       style="fill:none;fill-rule:evenodd;stroke:#d96500;stroke-width:6;stroke-linecap:butt;stroke-linejoin:miter;stroke-miterlimit:4;stroke-dasharray:24,6;stroke-dashoffset:0;stroke-opacity:1;marker-end:url(#Arrow2Mend)"
       d="m 90.678661,998.02632 c 0,0 45.245579,34.64258 119.675909,34.64258 74.43032,0 130.54767,-38.30117 130.54767,-38.30117"
       id="path5330"
       inkscape:connector-curvature="0"
       sodipodi:nodetypes="czc" />
    <path
       style="fill:none;fill-rule:evenodd;stroke:#d96500;stroke-width:6;stroke-linecap:butt;stroke-linejoin:miter;stroke-miterlimit:4;stroke-dasharray:24,6;stroke-dashoffset:0;stroke-opacity:1;marker-end:url(#Arrow2Mend-9)"
       d="m 539.82944,990.33907 c 0,0 35.24558,41.78543 109.67591,41.78543 74.43032,0 120.54767,-37.58688 120.54767,-37.58688"
       id="path5330-2"
       inkscape:connector-curvature="0"
       sodipodi:nodetypes="czc" />
  </g>
</svg>
